# xmcd
#
# Track frame offsets: 
#        150
#        12860
#        26630
#        43155
#        58025
#        75081
#        94123
#        111886
#        128294
#        144979
#        160961
#        181409
#        200539
#
# Disc length: 2836 seconds
#
# Revision: 0
# Processed by: cddbd v1.5.2PL0 Copyright (c) Steve Scherf et al.
# Submitted via: ExactAudioCopy v0.99pb5
#
DISCID=9e0b120d
DTITLE=Ádammo - Sin Miedo
DYEAR=2009
DGENRE=Rock
TTITLE0=Análisis de Amor
TTITLE1=Se Acabó
TTITLE2=Sin Miedo
TTITLE3=Contigo o Nada
TTITLE4=Vuelve La Noche
TTITLE5=Día a Día
TTITLE6=Me Enseñaste
TTITLE7=Caminando Sin Rumbo
TTITLE8=Por Primera Vez
TTITLE9=En Tus Sueños
TTITLE10=Lágrimas
TTITLE11=Lo Sabes Bien
TTITLE12=Hoy Quiero
EXTD=
EXTT0=
EXTT1=
EXTT2=
EXTT3=
EXTT4=
EXTT5=
EXTT6=
EXTT7=
EXTT8=
EXTT9=
EXTT10=
EXTT11=
EXTT12=
PLAYORDER=
